<svg xmlns="http://www.w3.org/2000/svg" width="341.758" height="70.012" viewBox="0 0 341.758 70.012"><g fill-rule="evenodd" clip-rule="evenodd" fill="#FF5302"><path d="M31.758 44.283l-16.662-3.97c-2.965-.705-3.183-2.43-.488-3.852l22.275-11.754-5.17-1.48c-2.856-.818-2.903-2.47-.11-3.686L57.547 8.227c-3.855-3.25-8.474-5.715-13.676-7.077C25.172-3.746 6.045 7.445 1.15 26.144c-3.07 11.724.186 23.615 7.648 32.062l22.96-13.923zM61.26 11.855L50.085 23.72l9.344 2.447c2.948.772 3.035 2.293.194 3.396l-20.182 7.844 15.952 4.176c2.948.772 3.582 3.135 1.417 5.278L33.947 69.498c-.17.17-.374.32-.568.476 16.168.77 31.226-9.815 35.49-26.1 3.063-11.703-.175-23.573-7.61-32.018z"/></g><g fill="#007AC3"><path d="M104.6 62.925h-9.382c-.77 0-1.26-.63-1.26-1.4V12.24c0-.77.49-1.33 1.26-1.33h9.38c.77 0 1.33.56 1.33 1.33v49.285c0 .77-.56 1.4-1.33 1.4zM148.7 20.78h-11.34v40.745c0 .77-.63 1.4-1.4 1.4h-9.17c-.772 0-1.4-.63-1.4-1.4V20.78h-11.412c-.77 0-1.4-.56-1.4-1.33v-7.21c0-.77.63-1.33 1.4-1.33h34.724c.77 0 1.47.56 1.47 1.33v7.21c0 .77-.702 1.33-1.47 1.33zM161.788 62.925h-8.19c-.77 0-1.47-.63-1.47-1.4v-8.82c0-.77.7-1.33 1.47-1.33h8.19c.77 0 1.4.56 1.4 1.33v8.82c0 .77-.63 1.4-1.4 1.4zM189.648 44.723c-1.68 0-3.92-.14-5.67-.21v17.012c0 .77-.63 1.4-1.4 1.4h-9.03c-.772 0-1.4-.56-1.4-1.33V14.55c0-2.38.98-3.01 3.15-3.36 3.57-.56 9.17-.91 14.21-.91 10.57 0 21.003 3.71 21.003 16.872v.63c0 13.09-10.43 16.94-20.862 16.94zm8.96-17.572c0-4.97-3.08-6.93-8.96-6.93-.98 0-4.83.14-5.67.21v14.282c.77.07 4.9.14 5.67.14 6.23 0 8.96-2.31 8.96-7.07v-.63zM227.026 62.925h-8.54c-.772 0-1.472-.7-1.472-1.47V10.63c0-.77.7-1.4 1.47-1.4h8.542c.77 0 1.33.63 1.33 1.4v50.826c0 .77-.56 1.47-1.33 1.47zM266.298 62.925h-7.84c-.77 0-1.4-.63-1.4-1.4v-1.12c-2.73 1.96-5.53 3.15-9.73 3.15-6.092 0-11.972-2.94-11.972-12.04v-.63c0-8.192 5.25-11.833 17.222-11.833h3.78v-2.52c0-3.99-1.96-4.83-5.25-4.83-4.48 0-9.452.28-11.622.49h-.35c-.7 0-1.26-.35-1.26-1.26V25.26c0-.77.49-1.33 1.33-1.54 2.59-.63 7.49-1.47 12.11-1.47 10.08 0 16.382 4.06 16.382 14.282v24.993c0 .77-.63 1.4-1.4 1.4zm-9.73-17.152h-3.99c-4.902 0-6.162 1.68-6.162 5.11v.63c0 2.94 1.47 3.5 4.41 3.5 2.1 0 4.06-.7 5.74-1.54v-7.7zM300.668 62.506c-1.96.49-5.11 1.05-9.312 1.05-9.87 0-16.312-6.3-16.312-17.712v-5.88c0-11.412 6.44-17.713 16.312-17.713 4.2 0 7.35.56 9.312 1.05 1.05.28 1.47.56 1.47 1.61v6.232c0 .7-.63 1.19-1.33 1.19h-.14c-2.59-.28-4.55-.49-8.54-.49-3.15 0-5.742 1.89-5.742 8.12v5.882c0 6.23 2.59 8.12 5.74 8.12 3.99 0 5.95-.21 8.542-.49h.14c.7 0 1.33.49 1.33 1.19v6.23c0 1.05-.42 1.33-1.47 1.612zM340.288 46.404h-22.332v.14c0 3.99 1.68 7.63 7.21 7.63 4.41 0 10.642-.35 13.442-.63h.21c.77 0 1.33.35 1.33 1.12v5.32c0 1.12-.28 1.61-1.47 1.892-4.48 1.12-8.262 1.68-14.353 1.68-8.47 0-17.57-4.48-17.57-17.992v-4.9c0-11.27 6.58-18.412 17.71-18.412 11.482 0 17.293 7.84 17.293 18.412v4.06c0 1.05-.56 1.68-1.47 1.68zm-9.59-7.28c0-5.182-2.38-7.772-6.302-7.772-3.85 0-6.44 2.66-6.44 7.77v.28h12.74v-.28z"/></g></svg>