<?xml version="1.0" encoding="UTF-8" standalone="no"?>
<svg width="250px" height="250px" viewBox="0 0 250 250" version="1.1" xmlns="http://www.w3.org/2000/svg" xmlns:xlink="http://www.w3.org/1999/xlink">
    <!-- Generator: Sketch 44.1 (41455) - http://www.bohemiancoding.com/sketch -->
    <title>iPhone 7</title>
    <desc>Created with Sketch.</desc>
    <defs></defs>
    <g id="Page-1" stroke="none" stroke-width="1" fill="none" fill-rule="evenodd">
        <g id="iPhone-7" fill="#004A9D">
            <g id="Group-2" transform="translate(11.000000, 0.000000)">
                <ellipse id="Combined-Shape-Copy-36" cx="211.014851" cy="61.9826824" rx="17.3267327" ry="17.4282269"></ellipse>
                <path d="M102.539547,134.067826 C118.784414,143.934884 127.929173,150.584422 127.929173,161.952988 C127.929173,171.176542 121.458764,177.638396 111.626344,177.638396 C95.3814764,177.638396 87.7066927,155.517951 87.7066927,155.517951 L63.1188119,165.438629 C63.1188119,165.438629 73.205185,202.708226 111.893619,202.708226 C137.757158,202.708226 157.995835,187.237326 157.995835,160.210169 C157.995835,138.545543 142.275731,123.932628 123.252136,112.34956 C108.289758,103.340508 100.267827,96.7714226 100.267827,86.4753627 C100.267827,78.5388165 106.711053,73.0690343 114.833487,73.0690343 C130.009613,73.0690343 135.278801,90.4972612 135.278801,90.4972612 L160.000279,80.8446884 C160.000279,80.8446884 151.571284,48.2673267 114.165339,48.2673267 C89.7980379,48.2673267 70.2011649,64.4085304 70.2011649,88.218169 C70.2011649,107.737783 83.9434484,122.69926 102.539547,134.067826 Z" id="SimbirSoft-Copy-14"></path>
                <path d="M196.163366,24.7524752 L24.7524752,24.7524752 L24.7524752,225.247525 L198.019802,225.247525 L198.019802,91.5841584 L222.772277,91.5841584 L222.772277,24.7524752 L196.163366,24.7524752 Z M0,0 L222.772277,0 L222.772277,250 L0,250 L0,0 Z" id="Combined-Shape"></path>
            </g>
        </g>
    </g>
</svg>