<svg xmlns="http://www.w3.org/2000/svg" xmlns:xlink="http://www.w3.org/1999/xlink" width="345.758" height="1547" viewBox="0 0 345.758 1547"><svg width="131.212" height="131.15" viewBox="232.758 354.986 131.212 131.15" enable-background="new 234.758 356.986 127.212 127.15" id="certifs" y="0"><path fill="#fff" d="M298.364 356.986c35.13 0 63.606 28.464 63.606 63.575s-28.477 63.577-63.606 63.577-63.606-28.464-63.606-63.575 28.478-63.574 63.606-63.574z"/><path fill="#007AC3" d="M308.602 409.266h-.004l-6.934.015-2.124-6.506c-.194-.592-.753-.996-1.384-.996s-1.19.4-1.383.994l-2.125 6.51-6.935-.014h-.003c-.63 0-1.19.396-1.384.987-.195.592.02 1.238.53 1.602l5.623 4-2.163 6.495c-.197.59.016 1.24.527 1.606.255.182.555.273.854.273.3 0 .6-.092.857-.276l5.6-4.033 5.598 4.033c.256.184.557.276.858.276.3 0 .6-.09.855-.274.51-.366.723-1.015.527-1.606l-2.162-6.496 5.622-4.002c.51-.365.726-1.01.53-1.6-.194-.59-.752-.986-1.382-.986zm-10.376-17.41c-12.628 0-22.9 10.124-22.9 22.57 0 8.103 4.332 15.47 11.385 19.51v14.177c0 .754.438 1.44 1.124 1.773.685.336 1.503.25 2.11-.212l8.366-6.39 8.377 6.392c.358.272.79.413 1.227.413.302 0 .603-.067.883-.205.687-.332 1.122-1.02 1.122-1.773v-14.28c6.94-4.062 11.204-11.392 11.204-19.408 0-12.445-10.273-22.57-22.9-22.57zm8.752 39.07c-.52.27-.893.753-1.022 1.32-.04.175-.057.354-.047.53v11.31l-6.377-4.863c-.36-.276-.794-.413-1.226-.413-.434 0-.866.14-1.227.415l-6.36 4.858v-11.317c0-.74-.422-1.42-1.092-1.757-6.35-3.21-10.293-9.56-10.293-16.585 0-10.268 8.474-18.62 18.89-18.62 10.417 0 18.89 8.352 18.89 18.62 0 6.95-3.885 13.274-10.137 16.5z"/></svg>
<svg width="131.212" height="131.15" viewBox="232.758 354.986 131.212 131.15" enable-background="new 234.758 356.986 127.212 127.15" id="certifs_sel" y="132"><path fill="#FF5302" d="M298.364 356.986c35.13 0 63.606 28.464 63.606 63.575s-28.477 63.577-63.606 63.577-63.606-28.464-63.606-63.575 28.478-63.574 63.606-63.574z"/><path fill="#fff" d="M308.602 409.266h-.004l-6.934.015-2.124-6.506c-.194-.592-.753-.996-1.384-.996s-1.19.4-1.383.994l-2.125 6.51-6.935-.014h-.003c-.63 0-1.19.396-1.384.987-.195.592.02 1.238.53 1.602l5.623 4-2.163 6.495c-.197.59.016 1.24.527 1.606.255.182.555.273.854.273.3 0 .6-.092.857-.276l5.6-4.033 5.598 4.033c.256.184.557.276.858.276.3 0 .6-.09.855-.274.51-.366.723-1.015.527-1.606l-2.162-6.496 5.622-4.002c.51-.365.726-1.01.53-1.6-.194-.59-.752-.986-1.382-.986zm-10.376-17.41c-12.628 0-22.9 10.124-22.9 22.57 0 8.103 4.332 15.47 11.385 19.51v14.177c0 .754.438 1.44 1.124 1.773.685.336 1.503.25 2.11-.212l8.366-6.39 8.377 6.392c.358.272.79.413 1.227.413.302 0 .603-.067.883-.205.687-.332 1.122-1.02 1.122-1.773v-14.28c6.94-4.062 11.204-11.392 11.204-19.408 0-12.445-10.273-22.57-22.9-22.57zm8.752 39.07c-.52.27-.893.753-1.022 1.32-.04.175-.057.354-.047.53v11.31l-6.377-4.863c-.36-.276-.794-.413-1.226-.413-.434 0-.866.14-1.227.415l-6.36 4.858v-11.317c0-.74-.422-1.42-1.092-1.757-6.35-3.21-10.293-9.56-10.293-16.585 0-10.268 8.474-18.62 18.89-18.62 10.417 0 18.89 8.352 18.89 18.62 0 6.95-3.885 13.274-10.137 16.5z"/></svg>
<svg width="24.001" height="19.962" viewBox="287 410.876 24.001 19.962" enable-background="new 289 412.876 20.001 15.962" id="envelope" y="264"><path fill="#007AC3" d="M306.7 412.876h-15.4c-1.268 0-2.3 1.03-2.3 2.294v11.373c0 1.265 1.032 2.295 2.3 2.295h15.4c1.27 0 2.3-1.03 2.3-2.295V415.17c0-1.264-1.03-2.294-2.3-2.294zm.7 13.668c0 .385-.313.698-.7.698h-15.4c-.386 0-.7-.313-.7-.698V415.17c0-.384.314-.697.7-.697h15.4c.387 0 .7.313.7.698v11.375zm-5.054-5.827l3.657-3.648c.313-.314.313-.82 0-1.13s-.82-.313-1.13 0L299 421.796l-5.75-5.737c-.314-.312-.82-.312-1.132 0-.312.31-.312.816 0 1.128l3.64 3.63-3.576 3.568c-.312.312-.312.817 0 1.128.156.156.36.234.566.234.205 0 .41-.078.566-.234l3.576-3.567 1.546 1.542c.156.154.36.232.565.232.207 0 .41-.078.568-.234l1.648-1.645 3.678 3.67c.156.155.36.233.566.233.204 0 .408-.078.564-.234.313-.31.313-.817 0-1.128l-3.678-3.67z"/></svg>
<svg width="24.001" height="19.962" viewBox="287 410.876 24.001 19.962" enable-background="new 289 412.876 20.001 15.962" id="envelope_sel" y="284"><path fill="#FF5302" d="M306.7 412.876h-15.4c-1.268 0-2.3 1.03-2.3 2.294v11.373c0 1.265 1.032 2.295 2.3 2.295h15.4c1.27 0 2.3-1.03 2.3-2.295V415.17c0-1.264-1.03-2.294-2.3-2.294zm.7 13.668c0 .385-.313.698-.7.698h-15.4c-.386 0-.7-.313-.7-.698V415.17c0-.384.314-.697.7-.697h15.4c.387 0 .7.313.7.698v11.375zm-5.054-5.827l3.657-3.648c.313-.314.313-.82 0-1.13s-.82-.313-1.13 0L299 421.796l-5.75-5.737c-.314-.312-.82-.312-1.132 0-.312.31-.312.816 0 1.128l3.64 3.63-3.576 3.568c-.312.312-.312.817 0 1.128.156.156.36.234.566.234.205 0 .41-.078.566-.234l3.576-3.567 1.546 1.542c.156.154.36.232.565.232.207 0 .41-.078.568-.234l1.648-1.645 3.678 3.67c.156.155.36.233.566.233.204 0 .408-.078.564-.234.313-.31.313-.817 0-1.128l-3.678-3.67z"/></svg>
<svg width="131.212" height="131.15" viewBox="232.758 354.986 131.212 131.15" enable-background="new 234.758 356.986 127.212 127.15" id="events" y="304"><path fill="#fff" d="M298.364 356.986c35.13 0 63.606 28.464 63.606 63.575s-28.477 63.577-63.606 63.577-63.606-28.464-63.606-63.575 28.478-63.574 63.606-63.574z"/><path fill="#007AC3" d="M275.108 415.112c.148.032.295.048.44.048.916 0 1.744-.633 1.952-1.563 1.25-5.588 4.252-10.077 8.68-12.982.924-.606 1.182-1.846.573-2.768-.606-.923-1.852-1.177-2.774-.572-5.315 3.487-8.91 8.83-10.39 15.45-.24 1.077.437 2.146 1.517 2.387zm23.91 18.16c-9.65 0-20.034 2.44-20.034 7.8 0 5.36 10.385 7.8 20.034 7.8s20.034-2.44 20.034-7.8c0-5.36-10.385-7.8-20.034-7.8zm0 11.6c-10.542 0-15.807-2.763-16.028-3.786.18-.853 3.68-2.832 10.622-3.55.73 1.87 2.543 3.2 4.676 3.2 2.178 0 4.015-1.388 4.714-3.32 7.88.576 11.852 2.758 12.044 3.644-.22 1.05-5.485 3.813-16.028 3.813zm26.604-7.68l-6.575-8.155c-1.828-2.268-2.598-5.215-2.11-8.085l.194-1.14c.823-4.823-.52-9.733-3.684-13.47-2.22-2.624-5.166-4.44-8.417-5.303v-2.62c0-3.286-2.68-5.958-6.05-5.958-3.293 0-5.97 2.673-5.97 5.957v2.62c-3.25.86-6.198 2.677-8.418 5.3-3.163 3.74-4.506 8.647-3.685 13.47l.194 1.142c.488 2.87-.282 5.816-2.11 8.084l-6.575 8.154c-.694.86-.557 2.12.305 2.813.86.688 2.12.555 2.816-.305l6.575-8.154c2.548-3.16 3.62-7.263 2.94-11.26l-.194-1.14c-.623-3.66.397-7.386 2.797-10.223 2.4-2.834 5.91-4.46 9.633-4.46h3.467c3.72 0 7.232 1.626 9.632 4.462 2.4 2.838 3.42 6.563 2.797 10.223l-.193 1.14c-.68 3.997.39 8.102 2.937 11.26l6.575 8.154c.396.49.976.745 1.563.745.44 0 .884-.145 1.255-.44.86-.692.998-1.95.304-2.812zm-24.6-36.732h-4.007v-2.04c0-1.08.88-1.958 2.043-1.958 1.083 0 1.963.88 1.963 1.96l.003 2.038z"/></svg>
<svg width="131.212" height="131.15" viewBox="232.758 354.986 131.212 131.15" enable-background="new 234.758 356.986 127.212 127.15" id="events_sel" y="436"><path fill="#FF5302" d="M298.364 356.986c35.13 0 63.606 28.464 63.606 63.575s-28.477 63.577-63.606 63.577-63.606-28.464-63.606-63.575 28.478-63.574 63.606-63.574z"/><path fill="#fff" d="M275.108 415.112c.148.032.295.048.44.048.916 0 1.744-.633 1.952-1.563 1.25-5.588 4.252-10.077 8.68-12.982.924-.606 1.182-1.846.573-2.768-.606-.923-1.852-1.177-2.774-.572-5.315 3.487-8.91 8.83-10.39 15.45-.24 1.077.437 2.146 1.517 2.387zm23.91 18.16c-9.65 0-20.034 2.44-20.034 7.8 0 5.36 10.385 7.8 20.034 7.8s20.034-2.44 20.034-7.8c0-5.36-10.385-7.8-20.034-7.8zm0 11.6c-10.542 0-15.807-2.763-16.028-3.786.18-.853 3.68-2.832 10.622-3.55.73 1.87 2.543 3.2 4.676 3.2 2.178 0 4.015-1.388 4.714-3.32 7.88.576 11.852 2.758 12.044 3.644-.22 1.05-5.485 3.813-16.028 3.813zm26.604-7.68l-6.575-8.155c-1.828-2.268-2.598-5.215-2.11-8.085l.194-1.14c.823-4.823-.52-9.733-3.684-13.47-2.22-2.624-5.166-4.44-8.417-5.303v-2.62c0-3.286-2.68-5.958-6.05-5.958-3.293 0-5.97 2.673-5.97 5.957v2.62c-3.25.86-6.198 2.677-8.418 5.3-3.163 3.74-4.506 8.647-3.685 13.47l.194 1.142c.488 2.87-.282 5.816-2.11 8.084l-6.575 8.154c-.694.86-.557 2.12.305 2.813.86.688 2.12.555 2.816-.305l6.575-8.154c2.548-3.16 3.62-7.263 2.94-11.26l-.194-1.14c-.623-3.66.397-7.386 2.797-10.223 2.4-2.834 5.91-4.46 9.633-4.46h3.467c3.72 0 7.232 1.626 9.632 4.462 2.4 2.838 3.42 6.563 2.797 10.223l-.193 1.14c-.68 3.997.39 8.102 2.937 11.26l6.575 8.154c.396.49.976.745 1.563.745.44 0 .884-.145 1.255-.44.86-.692.998-1.95.304-2.812zm-24.6-36.732h-4.007v-2.04c0-1.08.88-1.958 2.043-1.958 1.083 0 1.963.88 1.963 1.96l.003 2.038z"/></svg>
<svg width="131.212" height="131.15" viewBox="232.758 354.986 131.212 131.15" enable-background="new 234.758 356.986 127.212 127.15" id="experts" y="568"><path fill="#fff" d="M298.364 356.986c35.13 0 63.606 28.464 63.606 63.575s-28.477 63.577-63.606 63.577-63.606-28.464-63.606-63.575 28.478-63.574 63.606-63.574z"/><path fill="#007AC3" d="M328.93 405.32c0-2.68-1.824-4.97-4.434-5.57l-24.803-5.722c-.416-.094-.84-.14-1.26-.14s-.844.046-1.286.145l-24.777 5.716c-2.61.6-4.434 2.89-4.434 5.57 0 2.677 1.824 4.966 4.432 5.57l5.098 1.174v16.116c0 5.058 5.79 9.527 20.967 9.527s20.967-4.47 20.967-9.526v-16.114l5.096-1.176c2.61-.603 4.434-2.892 4.434-5.57zm-13.343 22.86c0 2.106-5.718 5.716-17.155 5.716-11.436 0-17.155-3.61-17.155-5.716v-15.236l15.893 3.665c.416.092.84.137 1.262.137s.846-.046 1.284-.145l15.87-3.66v15.237zm-16.725-15.288l-.43.047-.428-.05-24.78-5.714c-.865-.2-1.476-.97-1.476-1.858s.61-1.66 1.477-1.86l24.78-5.714.428-.048.43.048 24.777 5.715c.864.2 1.478.97 1.478 1.86 0 .885-.614 1.656-1.478 1.856l-24.778 5.715zm24.35 1.952v17.146c0 1.053.852 1.905 1.905 1.905 1.052 0 1.906-.852 1.906-1.905v-17.146c0-1.054-.854-1.905-1.906-1.905-1.053 0-1.906.85-1.906 1.903zm1.905 20.957c-2.107 0-3.812 5.52-3.812 7.623 0 2.102 1.705 3.81 3.812 3.81 2.103 0 3.812-1.708 3.812-3.81 0-2.103-1.71-7.62-3.814-7.62z"/></svg>
<svg width="131.212" height="131.15" viewBox="232.758 354.986 131.212 131.15" enable-background="new 234.758 356.986 127.212 127.15" id="experts_sel" y="700"><path fill="#FF5302" d="M298.364 356.986c35.13 0 63.606 28.464 63.606 63.575s-28.477 63.577-63.606 63.577-63.606-28.464-63.606-63.575 28.478-63.574 63.606-63.574z"/><path fill="#fff" d="M328.93 405.32c0-2.68-1.824-4.97-4.434-5.57l-24.803-5.722c-.416-.094-.84-.14-1.26-.14s-.844.046-1.286.145l-24.777 5.716c-2.61.6-4.434 2.89-4.434 5.57 0 2.677 1.824 4.966 4.432 5.57l5.098 1.174v16.116c0 5.058 5.79 9.527 20.967 9.527s20.967-4.47 20.967-9.526v-16.114l5.096-1.176c2.61-.603 4.434-2.892 4.434-5.57zm-13.343 22.86c0 2.106-5.718 5.716-17.155 5.716-11.436 0-17.155-3.61-17.155-5.716v-15.236l15.893 3.665c.416.092.84.137 1.262.137s.846-.046 1.284-.145l15.87-3.66v15.237zm-16.725-15.288l-.43.047-.428-.05-24.78-5.714c-.865-.2-1.476-.97-1.476-1.858s.61-1.66 1.477-1.86l24.78-5.714.428-.048.43.048 24.777 5.715c.864.2 1.478.97 1.478 1.86 0 .885-.614 1.656-1.478 1.856l-24.778 5.715zm24.35 1.952v17.146c0 1.053.852 1.905 1.905 1.905 1.052 0 1.906-.852 1.906-1.905v-17.146c0-1.054-.854-1.905-1.906-1.905-1.053 0-1.906.85-1.906 1.903zm1.905 20.957c-2.107 0-3.812 5.52-3.812 7.623 0 2.102 1.705 3.81 3.812 3.81 2.103 0 3.812-1.708 3.812-3.81 0-2.103-1.71-7.62-3.814-7.62z"/></svg>
<svg width="49.002" height="49.002" viewBox="273.499 396.499 49.002 49.002" enable-background="new 275.499 398.499 45.002 45.002" id="facebook" y="832"><path fill="#3B5998" d="M298 400.5c11.304 0 20.5 9.196 20.5 20.5s-9.196 20.5-20.5 20.5-20.5-9.196-20.5-20.5 9.196-20.5 20.5-20.5m0-2c-12.427 0-22.5 10.073-22.5 22.5s10.073 22.5 22.5 22.5 22.5-10.073 22.5-22.5-10.073-22.5-22.5-22.5zm2.06 16.338h1.667v-2.798h-2.043v.012c-3.196.116-3.853 1.965-3.91 3.907h-.006v2.244h-1.633v2.798h1.633v8.956h3.264V421h2.448l.484-2.797h-2.933v-2.028c.003-.652.426-1.34 1.03-1.34z"/></svg>
<svg width="49.002" height="49.002" viewBox="332.083 396.499 49.002 49.002" enable-background="new 334.083 398.499 45.002 45.002" id="facebook_sel" y="882"><path fill="#3B5998" d="M356.584 398.5c12.427 0 22.5 10.073 22.5 22.5s-10.073 22.5-22.5 22.5-22.5-10.073-22.5-22.5 10.073-22.5 22.5-22.5z"/><path fill="#fff" d="M358.643 414.838h1.667v-2.798h-2.043v.012c-3.196.116-3.853 1.965-3.91 3.907h-.006v2.244h-1.63v2.798h1.632v8.956h3.265V421h2.448l.484-2.797h-2.934v-2.028c.002-.652.425-1.34 1.03-1.34z"/></svg>
<svg width="345.758" height="74.012" viewBox="-2 -2 345.758 74.012" id="it_logo" y="932"><path d="M31.758 44.283l-16.662-3.97c-2.965-.705-3.183-2.43-.488-3.852l22.275-11.753-5.17-1.48c-2.856-.818-2.903-2.47-.11-3.686L57.547 8.228c-3.855-3.25-8.474-5.715-13.676-7.077C25.173-3.746 6.046 7.445 1.15 26.144c-3.07 11.724.186 23.615 7.648 32.062l22.96-13.923zM61.26 11.855L50.085 23.72l9.344 2.447c2.947.772 3.034 2.293.193 3.396L39.44 37.407l15.953 4.176c2.948.772 3.582 3.135 1.417 5.278L33.947 69.5c-.17.17-.374.32-.568.476 16.167.77 31.225-9.815 35.49-26.1 3.062-11.703-.176-23.573-7.61-32.018z" fill-rule="evenodd" clip-rule="evenodd" fill="#FF5302"/><path d="M104.6 62.925h-9.382c-.77 0-1.26-.63-1.26-1.4V12.24c0-.77.49-1.33 1.26-1.33h9.38c.77 0 1.33.56 1.33 1.33v49.285c0 .77-.56 1.4-1.33 1.4zm44.1-42.145h-11.34v40.745c0 .77-.63 1.4-1.4 1.4h-9.17c-.772 0-1.4-.63-1.4-1.4V20.78h-11.412c-.77 0-1.4-.56-1.4-1.33v-7.21c0-.77.63-1.33 1.4-1.33h34.724c.77 0 1.47.56 1.47 1.33v7.21c0 .77-.702 1.33-1.47 1.33zm13.088 42.145h-8.19c-.77 0-1.47-.63-1.47-1.4v-8.82c0-.77.7-1.33 1.47-1.33h8.19c.77 0 1.4.56 1.4 1.33v8.82c0 .77-.63 1.4-1.4 1.4zm27.86-18.202c-1.68 0-3.92-.14-5.67-.21v17.012c0 .77-.63 1.4-1.4 1.4h-9.03c-.772 0-1.4-.56-1.4-1.33V14.55c0-2.38.98-3.01 3.15-3.36 3.57-.56 9.17-.91 14.21-.91 10.57 0 21.003 3.71 21.003 16.872v.63c0 13.09-10.43 16.94-20.86 16.94zm8.96-17.572c0-4.97-3.08-6.93-8.96-6.93-.98 0-4.83.14-5.67.21v14.283c.77.07 4.9.14 5.67.14 6.23 0 8.96-2.31 8.96-7.07v-.63zm28.418 35.775h-8.54c-.772 0-1.472-.7-1.472-1.47V10.63c0-.77.7-1.4 1.47-1.4h8.542c.77 0 1.33.63 1.33 1.4v50.826c0 .77-.56 1.47-1.33 1.47zm39.272 0h-7.84c-.77 0-1.4-.63-1.4-1.4v-1.12c-2.73 1.96-5.53 3.15-9.73 3.15-6.092 0-11.972-2.94-11.972-12.04v-.63c0-8.192 5.25-11.833 17.222-11.833h3.78v-2.52c0-3.99-1.96-4.83-5.25-4.83-4.48 0-9.452.28-11.622.49h-.35c-.7 0-1.26-.35-1.26-1.26V25.26c0-.77.49-1.33 1.33-1.54 2.59-.63 7.49-1.47 12.11-1.47 10.08 0 16.382 4.06 16.382 14.282v24.993c0 .77-.63 1.4-1.4 1.4zm-9.73-17.152h-3.99c-4.902 0-6.162 1.68-6.162 5.11v.63c0 2.94 1.47 3.5 4.41 3.5 2.1 0 4.06-.7 5.74-1.54v-7.7zm44.1 16.733c-1.96.49-5.11 1.05-9.312 1.05-9.87 0-16.312-6.3-16.312-17.712v-5.88c0-11.412 6.44-17.713 16.312-17.713 4.2 0 7.35.56 9.312 1.05 1.05.28 1.47.56 1.47 1.61v6.233c0 .7-.63 1.19-1.33 1.19h-.14c-2.59-.28-4.55-.49-8.54-.49-3.15 0-5.742 1.89-5.742 8.12v5.882c0 6.23 2.59 8.12 5.74 8.12 3.99 0 5.95-.21 8.542-.49h.14c.7 0 1.33.49 1.33 1.19v6.23c0 1.05-.42 1.33-1.47 1.612zm39.62-16.102h-22.332v.14c0 3.99 1.68 7.63 7.21 7.63 4.41 0 10.642-.35 13.442-.63h.21c.77 0 1.33.35 1.33 1.12v5.32c0 1.12-.28 1.61-1.47 1.892-4.48 1.12-8.262 1.68-14.353 1.68-8.47 0-17.57-4.48-17.57-17.992v-4.9c0-11.27 6.58-18.412 17.71-18.412 11.482 0 17.293 7.84 17.293 18.412v4.06c0 1.05-.56 1.68-1.47 1.68zm-9.59-7.28c0-5.182-2.38-7.772-6.302-7.772-3.85 0-6.44 2.66-6.44 7.77v.28h12.74v-.28z" fill="#007AC3"/></svg>
<svg width="22.288" height="29.891" viewBox="287.25 405.834 22.288 29.891" enable-background="new 289.25 407.834 18.288 25.891" id="marker" y="1007"><path fill="#007AC3" d="M298.393 407.834c-5.04 0-9.143 4.122-9.143 9.188 0 1.69.46 3.342 1.333 4.78.228.44 1.194 2.248 5.562 10.356.538.995 1.356 1.567 2.242 1.567.886 0 1.704-.57 2.242-1.568 4.39-8.148 5.324-9.89 5.535-10.294.898-1.452 1.372-3.125 1.372-4.84 0-5.067-4.103-9.19-9.145-9.19zm6.02 13.064c-.137.267-3.39 6.307-5.543 10.3-.21.39-.417.516-.484.516s-.273-.127-.484-.515c-2.153-3.998-5.41-10.053-5.53-10.283-.022-.056-.05-.11-.08-.16-.682-1.123-1.042-2.414-1.042-3.736 0-3.957 3.204-7.177 7.143-7.177 3.938 0 7.143 3.22 7.143 7.178 0 1.346-.372 2.657-1.124 3.877zm-6.02-8.757c-2.915 0-5.286 2.385-5.286 5.315s2.372 5.313 5.286 5.313c2.915 0 5.286-2.384 5.286-5.313 0-2.93-2.373-5.313-5.288-5.313zm0 8.617c-1.812 0-3.286-1.48-3.286-3.302s1.474-3.302 3.286-3.302 3.286 1.48 3.286 3.302c0 1.82-1.476 3.302-3.288 3.302z"/></svg>
<svg width="131.212" height="131.15" viewBox="232.758 354.986 131.212 131.15" enable-background="new 234.758 356.986 127.212 127.15" id="people" y="1037"><path fill="#fff" d="M298.364 356.986c35.13 0 63.606 28.464 63.606 63.575s-28.477 63.577-63.606 63.577-63.606-28.464-63.606-63.575 28.478-63.574 63.606-63.574z"/><path fill="#007AC3" d="M330.6 435.156l-1.56-3.17c-1.215-2.473-4.21-3.974-6.54-4.176-.703-.06-2.093-.31-3.235-.58-.312-.072-.578-.14-.803-.202 2.395-2.045 3.81-5.29 3.81-8.785 0-6.002-4.184-10.885-9.327-10.885-5.145 0-9.33 4.884-9.33 10.887 0 1.193.177 2.35.49 3.447 1.047.21 2.077.38 2.687.432.307.027.625.102.947.204-.608-1.204-.95-2.604-.95-4.083 0-4.245 2.76-7.698 6.154-7.698 3.393 0 6.153 3.453 6.153 7.696 0 2.69-1.1 5.142-2.945 6.56-.104.08-.2.176-.282.28-.685.866-1.042 1.818-1.063 2.827-.01.477.195.934.555 1.244.324.28.978.664 3.18 1.182 1.308.308 2.823.576 3.684.65 1.398.123 3.313 1.08 3.97 2.414l1.557 3.17c.23.466.236 1.46.126 1.718-.547.882-.866 1.05-.93 1.075h-10.087c-.332.554-1.074 2.134-2.223 3.19h12.338c2.003 0 3.204-1.945 3.598-2.582.785-1.266.643-3.553.023-4.813zm-21.632-5.81c-1.52-3.094-5.265-4.97-8.176-5.222-.88-.077-2.616-.387-4.044-.724-.39-.09-.722-.176-1.004-.253 2.993-2.556 4.763-6.612 4.763-10.98 0-7.504-5.23-13.608-11.66-13.608-6.432 0-11.663 6.103-11.663 13.607 0 4.39 1.786 8.465 4.803 11.02-.295.083-.65.173-1.072.272-1.834.427-3.362.72-4.085.784-2.81.243-6.633 2.197-8.2 5.384l-1.926 4.16c-.872 1.773-.86 4.102.028 5.535.494.8 1.996 3.23 4.5 3.23h35.155c2.503 0 4.005-2.43 4.498-3.228.982-1.586.803-4.444.03-6.02l-1.947-3.962zm-1.453 7.876c-.68 1.102-1.08 1.312-1.16 1.344l-35.077.005c-.016-.003-.424-.135-1.17-1.34-.118-.228-.15-1.056.175-1.716l1.927-4.16c.83-1.693 3.236-2.988 4.96-3.137 1.253-.11 3.448-.593 4.643-.873 2.734-.637 3.576-1.14 4.004-1.504.456-.39.712-.964.7-1.563-.026-1.208-.454-2.39-1.24-3.43-.12-.18-.268-.34-.442-.473-2.306-1.773-3.682-4.842-3.682-8.206 0-5.306 3.45-9.622 7.693-9.622 4.24 0 7.692 4.316 7.692 9.62 0 3.362-1.376 6.428-3.68 8.2-.13.1-.25.22-.353.35-.857 1.083-1.304 2.273-1.33 3.534-.012.597.243 1.167.694 1.555.403.35 1.22.83 3.972 1.477 1.636.386 3.53.72 4.606.814 1.747.153 4.14 1.35 4.96 3.016l1.948 3.96c.286.584.294 1.83.157 2.15z"/></svg>
<svg width="131.212" height="131.15" viewBox="232.758 354.986 131.212 131.15" enable-background="new 234.758 356.986 127.212 127.15" id="people_sel" y="1169"><path fill="#FF5302" d="M298.364 356.986c35.13 0 63.606 28.464 63.606 63.575s-28.477 63.577-63.606 63.577-63.606-28.464-63.606-63.575 28.478-63.574 63.606-63.574z"/><path fill="#fff" d="M330.6 435.156l-1.56-3.17c-1.215-2.473-4.21-3.974-6.54-4.176-.703-.06-2.093-.31-3.235-.58-.312-.072-.578-.14-.803-.202 2.395-2.045 3.81-5.29 3.81-8.785 0-6.002-4.184-10.885-9.327-10.885-5.145 0-9.33 4.884-9.33 10.887 0 1.193.177 2.35.49 3.447 1.047.21 2.077.38 2.687.432.307.027.625.102.947.204-.608-1.204-.95-2.604-.95-4.083 0-4.245 2.76-7.698 6.154-7.698 3.393 0 6.153 3.453 6.153 7.696 0 2.69-1.1 5.142-2.945 6.56-.104.08-.2.176-.282.28-.685.866-1.042 1.818-1.063 2.827-.01.477.195.934.555 1.244.324.28.978.664 3.18 1.182 1.308.308 2.823.576 3.684.65 1.398.123 3.313 1.08 3.97 2.414l1.557 3.17c.23.466.236 1.46.126 1.718-.547.882-.866 1.05-.93 1.075h-10.087c-.332.554-1.074 2.134-2.223 3.19h12.338c2.003 0 3.204-1.945 3.598-2.582.785-1.266.643-3.553.023-4.813zm-21.632-5.81c-1.52-3.094-5.265-4.97-8.176-5.222-.88-.077-2.616-.387-4.044-.724-.39-.09-.722-.176-1.004-.253 2.993-2.556 4.763-6.612 4.763-10.98 0-7.504-5.23-13.608-11.66-13.608-6.432 0-11.663 6.103-11.663 13.607 0 4.39 1.786 8.465 4.803 11.02-.295.083-.65.173-1.072.272-1.834.427-3.362.72-4.085.784-2.81.243-6.633 2.197-8.2 5.384l-1.926 4.16c-.872 1.773-.86 4.102.028 5.535.494.8 1.996 3.23 4.5 3.23h35.155c2.503 0 4.005-2.43 4.498-3.228.982-1.586.803-4.444.03-6.02l-1.947-3.962zm-1.453 7.876c-.68 1.102-1.08 1.312-1.16 1.344l-35.077.005c-.016-.003-.424-.135-1.17-1.34-.118-.228-.15-1.056.175-1.716l1.927-4.16c.83-1.693 3.236-2.988 4.96-3.137 1.253-.11 3.448-.593 4.643-.873 2.734-.637 3.576-1.14 4.004-1.504.456-.39.712-.964.7-1.563-.026-1.208-.454-2.39-1.24-3.43-.12-.18-.268-.34-.442-.473-2.306-1.773-3.682-4.842-3.682-8.206 0-5.306 3.45-9.622 7.693-9.622 4.24 0 7.692 4.316 7.692 9.62 0 3.362-1.376 6.428-3.68 8.2-.13.1-.25.22-.353.35-.857 1.083-1.304 2.273-1.33 3.534-.012.597.243 1.167.694 1.555.403.35 1.22.83 3.972 1.477 1.636.386 3.53.72 4.606.814 1.747.153 4.14 1.35 4.96 3.016l1.948 3.96c.286.584.294 1.83.157 2.15z"/></svg>
<svg width="152.384" height="45.026" viewBox="-2 -2 152.384 45.026" id="simbirsoft_logo" y="1301"><linearGradient id="aoa" gradientUnits="userSpaceOnUse" x1="74.192" y1="6.513" x2="74.192" y2="27.516"><stop offset="0" stop-color="#2F94D3"/><stop offset="1" stop-color="#2671A1"/></linearGradient><path fill-rule="evenodd" clip-rule="evenodd" fill="url(#aoa)" d="M109.003 4.52l3.707 1.728-.058 4.843 1.624-4.4 4.146-.12-3.707-1.726.058-4.843-1.624 4.4-2.774.08c-21.83-5.623-51.104-4.97-73.88-.027-1.352.294-2.676.6-3.98.914-.08-.04-.147-.086-.232-.126-1.343-.61-2.983-.92-4.888-.92-1.75 0-3.247.28-4.48.842-1.235.58-2.125 1.36-2.687 2.36-.228.414-.398.957-.53 1.576-23.513 8.263-30.576 20.516 4.733 31.93-25.28-8.97-21.56-19.544-4.97-27.463.086.933.26 1.745.533 2.42.39.968.874 1.717 1.468 2.264.593.56 1.81 1.436 3.64 2.654 1.826 1.187 2.982 2.046 3.45 2.56.453.516.672 1.61.672 3.28 0 .75-.11 1.327-.36 1.702-.233.39-.593.578-1.092.578-.484 0-.828-.14-1.015-.453-.188-.297-.298-.984-.298-2.046V23.09H19.64v1.842c0 2.125.202 3.764.64 4.92.437 1.156 1.343 2.108 2.732 2.842 1.406.75 3.076 1.124 5.044 1.124 1.796 0 3.373-.328 4.73-.968 1.344-.656 2.266-1.452 2.734-2.405.468-.952.702-2.436.702-4.466 0-2.765-.42-4.78-1.264-6.03-.86-1.25-2.92-2.842-6.2-4.794-1.14-.67-1.826-1.25-2.076-1.733-.266-.468-.39-1.187-.39-2.124 0-.217.014-.41.035-.596.758-.278 1.533-.55 2.323-.82.084.337.125.828.125 1.493v2.108h6.84V12.36c0-2.014-.178-3.497-.528-4.46C56.83 1.844 86.75-.61 109.913 4.494l-.91.028zM37.548 30.07h5.59V9.987h-5.59v20.08zm14.897-10.947l-.437-4.763c-.22-1.624-.437-3.092-.656-4.372h-7.058v20.08h4.966V17.14l1.39 12.93h3.607l1.296-13.226V30.07h4.966V9.988H53.4l-.955 9.135zm18.77.125c.983-.094 1.67-.39 2.076-.89.39-.5.595-1.343.595-2.56 0-1.734-.28-3.014-.812-3.81-.546-.813-1.25-1.344-2.108-1.61-.874-.266-2.123-.39-3.747-.39h-5.34v20.08h6.152c2.076 0 3.465-.124 4.168-.373.718-.25 1.234-.718 1.56-1.405.314-.687.485-1.718.485-3.076v-1.81c0-1.313-.234-2.312-.687-2.983-.453-.672-1.233-1.062-2.342-1.17zm-2.578 5.387c0 .718-.062 1.17-.22 1.312-.155.156-.467.25-.936.266v-4.98c.518.03.83.108.97.233.125.125.187.578.187 1.343v1.824zm-.14-7.245c-.11.187-.36.28-.765.28-.062 0-.14 0-.25.016V13.83c.312.015.547.03.687.093.123.047.25.172.342.36.078.202.125.593.125 1.155 0 1.124-.047 1.78-.14 1.952zm6.808 12.68h5.606V9.987h-5.604v20.08zM93.31 18.81c.42-.578.624-1.655.624-3.232 0-1.718-.28-2.983-.86-3.795-.56-.812-1.295-1.31-2.185-1.515-.908-.187-2.563-.28-4.967-.28h-3.857v20.08h5.59V21.23c.438 0 .72.094.86.296.124.188.186.78.186 1.78v6.76h5.23V24.65c0-1.61-.046-2.592-.14-2.967-.077-.375-.31-.797-.702-1.25-.374-.452-1.03-.702-1.967-.733 1.046-.015 1.764-.312 2.186-.89zm-4.607-2.64c0 .766-.094 1.22-.266 1.344-.172.11-.42.172-.78.172V13.83c.358 0 .608.077.78.218.172.156.266.5.266 1.046v1.077zm15.52-.857c-1.14-.672-1.826-1.25-2.076-1.733-.25-.484-.375-1.187-.375-2.14 0-.733.11-1.28.328-1.638.234-.36.562-.547 1.015-.547.406 0 .703.14.875.406.172.268.266.89.266 1.876v2.092h6.823v-1.11c0-2.248-.22-3.84-.658-4.793-.437-.937-1.327-1.702-2.67-2.327-1.343-.624-2.967-.92-4.887-.92-1.75 0-3.233.28-4.482.842-1.233.56-2.124 1.342-2.67 2.357-.562 1-.843 2.577-.843 4.747 0 1.5.204 2.748.594 3.717.39.954.875 1.72 1.468 2.266.61.547 1.812 1.436 3.638 2.64 1.843 1.2 2.982 2.06 3.45 2.575.454.516.69 1.594.69 3.265 0 .765-.126 1.327-.36 1.717-.25.39-.61.58-1.093.58-.5 0-.828-.157-1.03-.454-.188-.312-.28-.984-.28-2.045v-3.45h-6.84v1.858c0 2.124.22 3.764.64 4.904.437 1.156 1.343 2.11 2.748 2.86 1.39.748 3.06 1.123 5.044 1.123 1.794 0 3.355-.328 4.714-.968 1.358-.657 2.264-1.453 2.732-2.406.47-.968.718-2.452.718-4.466 0-2.78-.437-4.778-1.28-6.027-.86-1.25-2.922-2.84-6.2-4.793zm19.52-3.592c-.546-.716-1.25-1.263-2.123-1.622-.86-.36-1.842-.53-2.92-.53-1.14 0-2.14.186-3.014.56-.875.376-1.562.922-2.077 1.64-.517.72-.814 1.5-.923 2.327-.094.843-.14 2.25-.14 4.247v3.343c0 2.046.062 3.467.155 4.294.094.842.42 1.607.953 2.34.53.718 1.234 1.25 2.108 1.61.86.36 1.843.53 2.936.53 1.14 0 2.14-.187 3.012-.56.86-.376 1.546-.923 2.06-1.64.516-.72.83-1.5.922-2.344.094-.86.14-2.264.14-4.232v-3.34c0-2.015-.046-3.452-.14-4.28-.11-.843-.42-1.623-.952-2.342zm-4.497 12.526c0 1.124-.047 1.81-.125 2.046-.06.235-.217.36-.436.36-.22 0-.36-.093-.437-.297-.063-.187-.094-.843-.094-1.952v-9.15c0-.952.047-1.514.156-1.654.092-.14.233-.22.405-.22.203 0 .344.094.422.28.062.19.11.72.11 1.594v8.995zm6.917 5.808h5.59v-8.23h3.154V17.61h-3.154v-3.22h3.53V9.973h-9.12v20.08zm10.587-20.08v4.418h2.998v15.663h5.606V14.39h3.03V9.973H136.75z"/></svg>
<svg width="49.002" height="49.002" viewBox="274.133 396.66 49.002 49.002" enable-background="new 276.133 398.66 45.002 45.002" id="twit" y="1347"><path fill="#55ACEE" d="M298.634 400.66c11.304 0 20.5 9.197 20.5 20.5s-9.196 20.502-20.5 20.502-20.5-9.197-20.5-20.5 9.195-20.502 20.5-20.502m0-2c-12.427 0-22.5 10.074-22.5 22.5s10.073 22.502 22.5 22.502 22.5-10.074 22.5-22.5-10.073-22.502-22.5-22.502zm9.176 16.81c-.302.166-1.208.5-2.05.582.54-.292 1.342-1.248 1.54-2.008-.52.334-1.716.818-2.306.818-.673-.702-1.62-1.14-2.672-1.14-2.042 0-3.697 1.654-3.697 3.695 0 .283.033.56.094.825-2.77-.073-5.8-1.46-7.623-3.836-1.12 1.94-.15 4.098 1.12 4.885-.434.035-1.236-.05-1.613-.416-.025 1.288.594 2.994 2.852 3.613-.435.234-1.205.167-1.54.117.12 1.087 1.64 2.508 3.306 2.508-.593.687-2.826 1.932-5.33 1.536 1.7 1.035 3.683 1.634 5.782 1.634 5.964 0 10.596-4.834 10.347-10.797v-.121c.54-.37 1.27-1.028 1.79-1.892z"/></svg>
<svg width="49.002" height="49.002" viewBox="274.133 396.66 49.002 49.002" enable-background="new 276.133 398.66 45.002 45.002" id="twit_sel" y="1397"><path fill="#55ACEE" d="M298.634 398.66c12.427 0 22.5 10.074 22.5 22.5s-10.073 22.502-22.5 22.502-22.5-10.074-22.5-22.5 10.073-22.502 22.5-22.502z"/><path fill="#fff" d="M307.81 415.47c-.302.166-1.208.5-2.05.582.54-.292 1.342-1.248 1.54-2.008-.52.334-1.716.818-2.306.818-.673-.702-1.62-1.14-2.672-1.14-2.042 0-3.697 1.654-3.697 3.695 0 .283.033.56.094.825-2.77-.073-5.8-1.46-7.623-3.836-1.12 1.94-.15 4.098 1.12 4.885-.434.035-1.236-.05-1.613-.416-.025 1.288.594 2.994 2.852 3.613-.435.234-1.205.167-1.54.117.12 1.087 1.64 2.508 3.306 2.508-.593.687-2.826 1.932-5.33 1.536 1.7 1.035 3.683 1.634 5.782 1.634 5.964 0 10.596-4.834 10.347-10.797v-.121c.54-.37 1.27-1.028 1.79-1.892z"/></svg>
<svg width="49.002" height="49.002" viewBox="274.133 396.66 49.002 49.002" enable-background="new 276.133 398.66 45.002 45.002" id="vk" y="1447"><path fill="#4D75A3" d="M298.634 400.66c11.304 0 20.5 9.197 20.5 20.5s-9.196 20.502-20.5 20.502-20.5-9.197-20.5-20.5 9.195-20.502 20.5-20.502m0-2c-12.427 0-22.5 10.074-22.5 22.5s10.073 22.502 22.5 22.502 22.5-10.074 22.5-22.5-10.073-22.502-22.5-22.502zm6.232 22.658c-.67-.72-1.56-1.198-2.67-1.432v-.097c.772-.324 1.38-.828 1.818-1.513s.66-1.466.66-2.345c0-.757-.16-1.426-.478-2.006-.318-.58-.8-1.043-1.444-1.39-.596-.322-1.235-.534-1.916-.634-.68-.1-1.682-.15-3.003-.15h-6.357v17.995h7.203c1.247 0 2.276-.113 3.086-.338s1.553-.605 2.23-1.137c.572-.443 1.027-1.003 1.366-1.68.338-.677.508-1.462.508-2.357 0-1.224-.335-2.198-1.004-2.92zm-4.99-3.438c-.138.298-.388.532-.75.7-.33.154-.65.24-.96.255s-.853.024-1.627.024h-.57v-3.81h.314c.806 0 1.412.007 1.82.02s.758.082 1.057.21c.315.137.547.36.696.665.15.306.224.604.224.894 0 .395-.068.74-.205 1.04zm1.056 7.44c-.19.342-.49.602-.9.78-.467.2-.927.31-1.378.325s-1.265.024-2.44.024h-.243v-4.51h.836c.806 0 1.448.006 1.928.02.48.01.856.07 1.13.173.45.16.79.4 1.015.713.224.314.337.75.337 1.305 0 .437-.095.825-.284 1.168z"/></svg>
<svg width="49.002" height="49.002" viewBox="274.133 396.66 49.002 49.002" enable-background="new 276.133 398.66 45.002 45.002" id="vk_sel" y="1497"><path fill="#4D75A3" d="M298.634 398.66c12.427 0 22.5 10.074 22.5 22.5s-10.073 22.502-22.5 22.502-22.5-10.074-22.5-22.5 10.073-22.502 22.5-22.502z"/><path fill="#fff" d="M304.866 421.318c-.67-.72-1.56-1.198-2.67-1.432v-.097c.772-.324 1.38-.828 1.818-1.513s.66-1.466.66-2.345c0-.757-.16-1.426-.478-2.006-.318-.58-.8-1.043-1.444-1.39-.596-.322-1.235-.534-1.916-.634-.68-.1-1.682-.15-3.003-.15h-6.357v17.995h7.203c1.247 0 2.276-.113 3.086-.338s1.553-.605 2.23-1.137c.572-.443 1.027-1.003 1.366-1.68.338-.677.508-1.462.508-2.357 0-1.224-.335-2.198-1.004-2.92zm-4.99-3.438c-.138.298-.388.532-.75.7-.33.154-.65.24-.96.255s-.853.024-1.627.024h-.57v-3.81h.314c.806 0 1.412.007 1.82.02s.758.082 1.057.21c.315.137.547.36.696.665.15.306.224.604.224.894 0 .395-.068.74-.205 1.04zm1.056 7.44c-.19.342-.49.602-.9.78-.467.2-.927.31-1.378.325s-1.265.024-2.44.024h-.243v-4.51h.836c.806 0 1.448.006 1.928.02.48.01.856.07 1.13.173.45.16.79.4 1.015.713.224.314.337.75.337 1.305 0 .437-.095.825-.284 1.168z"/></svg>
</svg>